<svg width="51" height="90" viewBox="0 0 51 90" fill="none" xmlns="http://www.w3.org/2000/svg">
<path fill-rule="evenodd" clip-rule="evenodd" d="M41.3668 71.133C40.7148 71.6539 40.4087 72.4086 40.2776 73.257C40.2054 73.725 39.7865 73.789 39.4713 73.8712C39.1986 73.9427 38.9469 73.952 38.7264 74.1815C38.6352 74.2766 38.3505 74.2974 38.231 74.223C37.8485 73.9853 37.4391 73.8115 37.086 73.4944C35.8429 72.379 34.9318 70.9993 34.0789 69.5918C33.2088 68.1557 32.298 66.735 31.6316 65.1773C31.4244 64.6925 31.416 64.6965 31.9376 64.32C32.3618 65.1426 32.7572 65.9778 33.2151 66.7757C33.5783 67.4089 34.0175 67.9959 34.4599 68.6584C34.5641 68.3917 34.5616 68.2208 34.4 67.983C33.5201 66.6867 32.6847 65.3611 32.0221 63.8431C32.128 63.7727 32.2559 63.6872 32.3832 63.6028C32.4126 63.6286 32.4782 63.6865 32.5904 63.7855V63.245C32.9048 63.181 33.1898 63.1234 33.5607 63.0483C33.85 63.186 33.9874 63.7079 34.4635 63.7727C34.448 64.3007 34.9006 64.5638 35.1281 64.9496C35.4103 65.4279 35.7928 65.8444 36.0634 66.198C36.3691 66.1565 36.5977 66.1129 36.8284 66.0965C37.6382 66.0385 37.6186 66.0646 38.123 66.5183C38.6836 67.0224 39.0671 67.7278 39.79 68.0481C39.8366 68.0685 39.8885 68.1407 39.8909 68.1911C39.9134 68.7216 40.2047 68.9143 40.693 69.0431C41.1028 69.1514 41.2192 69.5918 41.2385 70.0251C41.2532 70.3573 41.3132 70.6872 41.3668 71.133" fill="black"/>
<path fill-rule="evenodd" clip-rule="evenodd" d="M31.0415 46.4367C30.5682 45.9541 30.171 45.4814 29.7079 45.0896C28.3796 43.9656 27.749 42.3754 26.9546 40.8953C26.5977 40.2307 26.6997 39.4842 26.7151 38.7653C26.7179 38.6405 26.8869 38.5193 26.9858 38.3885C27.1207 38.6609 27.2473 38.9161 27.4321 39.2887V37.9577C27.7101 37.8172 27.9845 37.7407 28.1717 37.5669C28.4042 37.3513 28.6667 37.3939 28.8799 37.4486C29.1281 37.5122 29.3398 37.7235 29.5894 37.8851C29.4433 38.5837 29.7128 39.1685 30.0469 39.7781C30.346 39.6955 30.699 39.9122 30.9984 39.599C31.0618 39.5325 31.2701 39.5271 31.3598 39.5822C32.0932 40.0323 32.9931 40.2711 33.364 41.1949C33.4306 41.3615 33.5046 41.5767 33.6385 41.6507C33.8404 41.7623 33.6592 42.1105 34.0059 42.1241C34.2912 42.1352 34.109 42.4319 34.1601 42.5935C34.2236 42.7937 34.3102 42.9896 34.3445 43.1948C34.3761 43.3829 34.3512 43.5809 34.3512 43.7761C33.6171 44.4182 33.1452 45.2362 32.7835 46.1475C32.1963 46.2447 31.6003 46.3438 31.0415 46.4367" fill="black"/>
<path fill-rule="evenodd" clip-rule="evenodd" d="M7.16806 8.69688C6.76035 8.97931 6.36771 9.26246 5.9586 9.51736C5.91899 9.54203 5.77666 9.39509 5.62311 9.2857C5.52916 9.45766 5.46535 9.61532 5.36579 9.74402C5.2487 9.89596 5.09831 10.0211 4.96544 10.1609C4.69621 10.4437 4.43679 10.7586 4.0389 10.3289C4.0084 10.2964 3.91585 10.3285 3.85309 10.3218C3.40612 10.2724 2.98018 10.3861 2.53041 10.0193C2.16827 9.724 1.70727 9.51986 1.36687 9.15735C1.04786 8.817 0.717623 8.49739 0.495013 8.06552C0.153561 7.40234 -0.183685 6.74667 -0.0620378 5.96837C-0.0315385 5.77317 0.0999242 5.59406 0.218766 5.33272C0.459255 5.53364 0.621918 5.66949 0.811926 5.82858C0.967578 5.30197 0.935676 4.68992 1.4142 4.22587C1.60175 4.36887 1.783 4.50687 2.00911 4.67919V3.96811C2.63733 3.85871 3.20805 3.63848 3.83767 3.67709C4.19875 3.69926 4.51076 3.81581 4.73933 4.03925C5.0331 4.32597 5.39278 4.53118 5.63257 4.8987C5.84922 5.23119 6.14545 5.50933 6.37297 5.85182C6.74632 6.4149 6.87253 7.07307 7.14562 7.67226C7.27603 7.95791 7.16806 8.35689 7.16806 8.69688" fill="black"/>
<path fill-rule="evenodd" clip-rule="evenodd" d="M45.5935 27.6546C45.6187 27.4748 45.6439 27.2946 45.672 27.0966C45.7414 27.148 45.8031 27.1684 45.8192 27.2081C46.0643 27.8194 46.3696 28.4054 46.5137 29.0593C46.6041 29.4704 46.7195 29.864 46.3293 30.1844C46.0636 30.4024 46.3332 31.0288 45.7354 30.9938C45.4536 31.4553 45.002 31.4092 44.5701 31.3777C44.4727 31.6866 44.412 31.9876 44.2848 32.2561C44.1414 32.5586 43.6832 32.644 43.1921 32.501C43.0799 32.4685 42.9716 32.3573 42.8688 32.3666C42.0731 32.4374 42.0745 32.4435 41.7397 31.8035C41.5725 31.4843 41.3705 31.1793 41.2408 30.845C41.0831 30.4375 40.8377 30.1829 40.4342 30.007C39.835 29.7457 39.4459 29.2159 39.3425 28.5856C39.2489 28.015 39.5108 27.4916 40.0103 27.0805C40.2578 27.4101 40.5046 27.7387 40.8506 28.1991C40.8506 27.7279 40.8457 27.4108 40.852 27.0941C40.8583 26.7791 40.892 26.8434 41.3807 26.6189C41.7299 26.4584 42.2357 26.6529 42.4366 26.1588C42.7816 26.1452 43.1262 26.1324 43.4711 26.1188C44.1081 26.093 44.6732 26.1638 44.9701 26.886C45.0879 27.172 45.3701 27.3879 45.5935 27.6546" fill="black"/>
<path fill-rule="evenodd" clip-rule="evenodd" d="M21.7155 77.2286C21.2208 77.2143 20.7528 77.0781 20.5137 77.6372C20.1099 77.0945 20.0622 76.7095 20.4734 76.2783C20.7574 75.9809 20.9446 75.6094 21.3063 75.3524C21.6229 75.1272 21.7393 74.6292 22.012 74.312C22.2217 74.0682 22.5365 73.9181 22.8047 73.7268C22.8884 73.8101 22.9789 73.9009 23.1216 74.0436C22.9701 74.1533 22.8215 74.2613 22.6725 74.3689C22.689 74.4079 22.7058 74.4468 22.7223 74.4858C22.9403 74.4508 23.158 74.4157 23.4031 74.3764C23.4683 74.4761 23.544 74.7321 23.7063 74.8183C24.6812 75.336 25.3035 76.2001 25.896 77.087C26.0905 77.378 26.1575 77.7545 26.3138 78.0766C26.6998 78.8728 26.7994 79.0197 26.6819 79.7433C26.5971 80.2664 26.5035 80.8241 26.1007 81.2502C25.9415 81.4183 25.7719 81.661 25.7635 81.8762C25.7424 82.4196 25.4497 82.5065 25.0192 82.4786C24.899 82.4708 24.7717 82.4865 24.6546 82.5187C23.9037 82.7246 23.8262 82.7031 23.4518 82.1161C22.8972 81.247 22.6322 80.2531 22.3097 79.2871C22.0818 78.6047 21.9079 77.9029 21.7155 77.2286" fill="black"/>
<path fill-rule="evenodd" clip-rule="evenodd" d="M9.55786 66.5317C9.02675 66.2243 8.48898 65.9551 8.05603 65.51C7.24938 64.6791 6.38348 63.9008 5.63922 63.0156C4.85676 62.0851 4.02837 61.1677 3.55615 60.0766C3.60593 59.6458 4.15632 60.1034 4.16684 59.595C4.17 59.4499 4.51881 59.3097 4.71232 59.1721C5.1926 58.8303 5.46078 58.7731 5.81065 59.1528C6.15596 59.5278 6.55525 59.6622 7.00713 59.7598C7.70511 59.9107 8.18679 60.4573 8.78416 60.7937C9.42324 61.1534 9.87863 61.7325 10.3978 62.2356C10.6667 62.4958 11.0008 62.6957 11.2318 62.9838C11.4642 63.2738 11.6777 63.6223 11.7601 63.9788C11.8099 64.1958 11.65 64.5233 11.4874 64.7167C11.2865 64.9551 11.1915 65.2994 10.8399 65.4149C10.6366 65.4814 10.6653 65.7131 10.6257 65.904C10.5801 66.1231 10.5202 66.3898 10.1472 66.1145C9.88634 65.9226 9.66689 66.195 9.55786 66.5317" fill="black"/>
<path fill-rule="evenodd" clip-rule="evenodd" d="M48.0478 60.8927C46.9582 60.435 46.4899 59.5842 46.0243 58.7573C45.6152 58.0304 45.2422 57.2736 44.9379 56.4953C44.6347 55.7181 44.1057 54.9816 44.3416 54.0035C45.0308 54.4932 44.9737 55.4296 45.6356 56.0556C45.5143 55.0653 45.0105 54.3002 44.7591 53.257C45.1069 53.4515 45.2331 53.5219 45.3874 53.6081C45.4172 53.4382 45.4484 53.2602 45.4792 53.0829C45.7674 53.0271 46.0517 52.972 46.3875 52.907C46.4766 53.0521 46.5933 53.2666 46.7321 53.4654C47.2734 54.2387 47.2766 54.2351 48.2596 54.5916C48.3693 54.6316 48.472 54.6967 48.5716 54.761C49.333 55.2515 50.0261 55.8042 50.445 56.6569C50.5999 56.9722 50.811 57.5514 50.8015 57.8871C50.7994 57.9657 50.8639 58.058 50.92 58.1245C51.063 58.2936 50.9985 58.4376 50.8506 58.5231C50.4211 58.7701 50.235 59.2563 49.8536 59.5474C49.6909 59.6714 49.6618 59.8366 49.6324 60.0414C49.5917 60.3203 49.0553 60.6817 48.8057 60.6231C48.6511 60.5866 48.5512 60.297 48.3405 60.5105C48.2301 60.6227 48.146 60.7622 48.0478 60.8927" fill="black"/>
<path fill-rule="evenodd" clip-rule="evenodd" d="M17.087 38.1711C16.9201 38.1993 16.7452 38.2286 16.5037 38.2694C16.599 38.4517 16.667 38.5811 16.7382 38.717C16.2842 39.18 15.8116 39.6619 15.3243 40.1592C15.2458 40.1592 15.1498 40.1445 15.0593 40.1613C13.9869 40.3637 13.2728 39.743 12.6772 38.9948C12.212 38.4102 11.812 37.7664 11.5007 37.0639C11.3065 36.6252 11.133 36.2212 11.2718 35.6252C11.5971 36.3546 11.887 37.0038 12.177 37.6534C12.2285 37.6362 12.28 37.6194 12.3319 37.6023C12.3084 37.4786 12.3049 37.3459 12.2579 37.2322C12.0641 36.7625 11.8436 36.3034 11.6609 35.8297C11.5799 35.6199 11.4064 35.3585 11.8485 35.2609C11.9848 35.2309 12.0648 34.931 12.1689 34.7533C12.26 34.5974 12.3484 34.4397 12.4206 34.3139C12.8676 34.2721 12.8718 34.6707 13.1505 34.8351C13.0856 34.5842 13.0208 34.3332 12.9352 34.0029C13.0783 33.8874 13.2693 33.7329 13.4604 33.5781C13.581 33.7004 13.7408 33.8953 13.8891 33.536C14.05 33.1477 14.2877 32.9965 14.673 33.2514C14.708 33.2746 14.7806 33.2925 14.8038 33.2732C15.25 32.8982 15.513 33.2718 15.7194 33.5585C16.2123 34.2438 16.4444 35.0668 16.7396 35.8498C16.809 36.0335 16.9601 36.465 16.4518 36.4858C16.423 36.4868 16.4009 36.6481 16.376 36.7346C16.4819 36.7607 16.6446 36.8443 16.6849 36.8029C16.9699 36.5115 17.1235 36.8919 17.0954 36.9588C16.924 37.3695 17.3212 37.7664 17.087 38.1711" fill="black"/>
<path fill-rule="evenodd" clip-rule="evenodd" d="M13.625 17.3657C13.7372 17.4802 13.8497 17.5949 14.0204 17.7687C14.0516 17.493 14.0776 17.2656 14.106 17.0175C14.4993 16.9335 14.9049 16.8277 15.3168 16.7655C15.5657 16.728 15.8287 16.729 16.0769 16.768C16.2662 16.798 16.1175 17.1577 16.4705 17.1891C16.6988 17.2095 16.874 17.6049 17.0364 17.8802C17.1682 18.1036 16.9708 18.5874 17.4714 18.5584C17.4886 18.8748 17.5058 19.1915 17.5236 19.5079C17.525 19.5387 17.5321 19.5691 17.5366 19.5998L18.9571 21.0484C19.1093 21.0484 19.2705 21.0284 19.4244 21.0531C19.6618 21.0921 19.9173 21.332 19.7957 21.4807C19.525 21.8114 20.0102 22.0398 19.8178 22.3097C19.0784 22.5357 18.8453 22.5607 18.2437 22.4535C18.3945 22.7856 18.5256 23.0752 18.6903 23.4391C18.5943 23.5331 18.4677 23.7623 18.3429 23.7616C17.5552 23.7555 16.7261 23.9593 16.0239 23.3891C15.8336 23.2343 15.6036 23.1131 15.4557 22.9239C15.1181 22.4928 14.8159 22.0327 14.5077 21.5779C14.3559 21.3538 14.2262 21.1135 14.0804 20.8847C13.8546 20.5304 13.9216 20.0199 13.5076 19.7664C13.5703 19.3367 13.3326 19.0117 13.1808 18.641C12.9743 18.1373 13.1023 17.6553 13.625 17.3657" fill="black"/>
<path fill-rule="evenodd" clip-rule="evenodd" d="M0.504725 38.8666C0.504725 38.7697 0.481938 38.635 0.512788 38.5141C0.533471 38.4333 0.669141 38.3783 0.68106 38.3007C0.694031 38.216 0.596573 38.1187 0.595522 38.0265C0.594821 37.9446 0.707703 37.8441 0.685617 37.7837C0.645302 37.6725 0.554856 37.5696 0.461956 37.4924C0.400256 37.4409 0.29754 37.4402 0.170634 37.4051C0.230231 37.6164 0.278259 37.7866 0.326637 37.9571C-0.0109592 37.7473 -0.386066 37.5799 -0.220949 37.0741C-0.0814232 37.1348 0.0556485 37.1953 0.225674 37.2696C0.280362 36.6608 -0.273183 36.9775 -0.486328 36.6894C-0.174323 36.7269 0.0335628 36.5078 0.34732 36.5503C0.492806 36.57 0.682112 36.2547 0.905072 36.0394C1.21462 36.2972 1.56168 36.5857 1.96764 36.9236C2.00726 36.6765 2.03565 36.5006 2.07001 36.2865C2.5289 36.196 2.99936 36.1034 3.47508 36.0098C3.71942 36.3279 3.91048 36.6182 4.14326 36.8681C4.34519 37.0841 4.62284 37.2282 4.8174 37.4495C5.36639 38.0744 5.61529 38.8634 5.84106 39.6438C5.92204 39.9231 6.01108 40.3649 5.48768 40.4397C5.49014 40.9523 4.96008 41.0288 4.72099 41.3538C4.42126 41.7607 3.8912 41.8307 3.31908 41.5951C2.46229 41.2423 1.89928 40.5601 1.35205 39.8959C1.07825 39.563 0.770805 39.2492 0.504725 38.8666" fill="black"/>
<path fill-rule="evenodd" clip-rule="evenodd" d="M16.2614 51.5111C16.4156 51.5647 16.5646 51.6162 16.7353 51.6755C16.77 50.8554 15.9388 50.6255 15.8232 49.8705C15.9914 49.9463 16.1285 49.9784 16.2277 50.0589C16.3869 50.1883 16.5208 50.3492 16.7192 50.5515C16.6516 50.1404 16.6067 50.046 16.3767 49.7646C16.8794 49.1447 16.8794 49.1447 17.4729 49.1426C17.7993 49.5176 18.078 50.0117 18.4962 50.2719C18.9579 50.5597 19.094 51.051 19.4344 51.4031C19.7597 51.7402 19.9756 52.1993 20.1912 52.6301C20.3097 52.866 20.4103 53.1674 20.3718 53.4155C20.3227 53.7291 20.1916 54.1899 19.9742 54.2789C19.6166 54.4258 19.6966 54.6836 19.584 54.9053C19.4298 55.2081 19.2188 55.5027 18.8317 55.5677C18.6056 55.6056 18.3364 55.7815 18.1706 55.7054C17.7671 55.5198 17.3502 55.2835 17.0519 54.9592C16.4889 54.3472 15.9855 53.674 15.5038 52.9919C15.3828 52.821 15.4386 52.5207 15.4028 52.1828C15.5634 52.3151 15.6272 52.3673 15.7625 52.4785C15.6924 51.9812 16.1187 51.8107 16.2614 51.5111" fill="black"/>
<path fill-rule="evenodd" clip-rule="evenodd" d="M11.2336 87.2692C10.9725 87.123 10.8466 87.0526 10.7246 86.9839C10.5097 87.7758 10.4564 87.8169 9.82156 87.5316C9.98913 87.9295 10.1234 88.2477 10.2696 88.5938C10.1038 88.6917 9.93409 88.7925 9.76266 88.8941C9.45276 88.5784 9.1383 88.2577 8.79475 87.907C8.58791 88.3821 9.15723 88.6016 9.10114 89.0603C8.59036 89.1329 8.29414 88.7786 8.00001 88.4526C7.83945 88.2745 7.75251 88.026 7.58704 87.8544C6.84945 87.0908 6.18688 86.2653 5.56918 85.4001C5.51379 85.3226 5.43701 85.2604 5.3683 85.1931C4.996 84.831 4.60582 84.481 4.57812 83.8907C4.94973 83.6587 5.1471 84.0162 5.39985 84.2375C5.65682 83.8039 5.06226 83.746 5.0889 83.4263C5.11169 83.0409 5.8307 83.5325 5.64806 82.9026H6.68328C6.97951 83.1153 7.27995 83.3259 7.57442 83.5443C7.86995 83.7635 8.06522 84.0784 8.427 84.2568C8.77827 84.4306 9.01105 84.8403 9.32025 85.1181C9.52182 85.2993 9.64978 85.5485 9.97195 85.63C10.2051 85.6887 10.3295 86.0494 10.6836 86.0029C10.7821 85.9897 10.9598 86.1713 11.01 86.3004C11.1057 86.5463 11.1351 86.8184 11.2336 87.2692" fill="black"/>
<path fill-rule="evenodd" clip-rule="evenodd" d="M4.66443 22.0594C4.99326 22.0815 5.22043 21.9082 5.52122 22.1295C5.36837 22.1831 5.25759 22.222 5.13665 22.2646C5.24953 22.6553 5.37503 23.0436 5.46723 23.4397C5.49072 23.5413 5.43848 23.7418 5.36942 23.7715C4.9859 23.9367 4.86986 24.3574 4.57118 24.588C4.43902 24.6903 4.24095 24.7235 4.06812 24.7436C3.98153 24.7532 3.87951 24.6199 3.79292 24.6292C3.6874 24.6406 3.59064 24.7346 3.47951 24.799C3.31545 24.2077 3.32386 24.1837 2.67777 23.9592C2.29109 23.8248 2.21081 23.4372 1.93667 23.1934C1.87532 23.3268 1.81607 23.4555 1.74982 23.5999C1.65341 23.4969 1.4911 23.4033 1.49145 23.3103C1.49636 22.1488 1.49531 22.1227 0.975415 21.4266C0.682341 21.9518 1.24395 22.2557 1.27445 22.7694C1.13527 22.7472 0.927387 22.7637 0.903198 22.7033C0.658853 22.0976 0.286551 21.5256 0.668318 20.7992C0.78681 20.5736 0.808194 20.4552 1.07427 20.4506C1.23834 20.4481 1.41468 20.3498 1.56086 20.2554C1.93982 20.0112 2.30476 19.7452 2.70967 19.4639C2.80222 19.6047 2.88776 19.7352 2.86707 19.7034C3.18644 19.9304 3.51948 19.3191 3.57277 19.9565C3.58819 20.1374 3.98468 19.7059 3.98468 20.1796C3.98468 20.3626 4.31457 20.546 4.48038 20.7151C4.42114 20.8717 4.36505 21.0212 4.30861 21.1706C4.35558 21.2039 4.40256 21.2371 4.44988 21.2704C4.53297 21.1091 4.61605 20.9479 4.72087 20.7452C4.8916 21.0412 4.99081 21.2124 5.12087 21.4373C4.97959 21.6297 4.82219 21.8445 4.66443 22.0594" fill="black"/>
<path fill-rule="evenodd" clip-rule="evenodd" d="M-2.84598 49.2888C-2.60829 49.3599 -2.36009 49.4339 -2.0551 49.5251C-1.92574 49.2108 -1.88753 48.9091 -2.16027 48.6285C-1.82513 48.3178 -1.60217 48.7861 -1.27369 48.7354C-1.24319 48.5663 -1.21058 48.3882 -1.17903 48.2138C-0.921717 47.9327 -0.689641 48.4511 -0.378688 48.2066C-0.0607238 47.9563 0.0195559 48.4965 0.289843 48.5584C0.441639 48.5931 0.583618 48.7543 0.691943 48.8902C1.05092 49.3392 1.10701 49.9745 1.59045 50.3667C1.70613 50.4603 1.64443 50.7825 1.67038 51.0688C1.13436 50.8003 1.10176 51.6676 0.585371 51.4621C0.426564 51.7241 0.576607 52.1993 -0.00428251 52.2561C-0.0656317 52.1496 -0.161687 51.9826 -0.298408 51.7445C-0.414797 51.9923 -0.471238 52.1124 -0.529081 52.2361C-0.854408 52.3147 -1.0034 52.0287 -1.11032 51.8468C-1.46545 51.2408 -1.92539 50.7771 -2.5203 50.4146C-2.88629 50.1915 -3.08717 49.8279 -2.84598 49.2888" fill="black"/>
</svg>
